{"title":"Johnny English Reborn [2011]","uid":6958139,"size":1572822312,"categoryP":"video","categoryS":"movies","magnet":"?xt=urn:btih:63036fe1b8f365c00387740391f3464708893078&amp;dn=Johnny+English+Reborn+%5B2011%5D&amp;tr=udp%3A%2F%2Ftracker.openbittorrent.com%3A80&amp;tr=udp%3A%2F%2Fopen.demonii.com%3A1337&amp;tr=udp%3A%2F%2Ftracker.coppersurfer.tk%3A6969&amp;tr=udp%3A%2F%2Fexodus.desync.com%3A6969","seeders":1,"leechers":0,"uploader":"Drosser","files":2,"time":1326660140,"description":"Johnny English goes up against international assassins hunting down the Chinese premier. v\n\n\nJohnny English Reborn (2011) DVDRip XviD-MAX\nFormat/Info                      : Audio Video Interleave\nFormat profile                   : OpenDML\nFile size                        : 1.45 GiB\nDuration                         : 1h 37mn\nOverall bit rate                 : 2 134 Kbps\nWriting application              : VirtualDubMod 1.5.10.2 (build 2542/release)\nWriting library                  : VirtualDubMod build 2542/release\nOriginal source form             : MAX TORRENTZ\nCopyright                        : SIGISMUNT\n\nVideo\nID                               : 0\nFormat                           : MPEG-4 Visual\nFormat profile                   : AdvancedSimple@L5\nFormat settings, BVOP            : Yes\nFormat settings, QPel            : No\nFormat settings, GMC             : No warppoints\nFormat settings, Matrix          : Custom\nCodec ID                         : DIVX\nCodec ID/Info                    : Project Mayo\nCodec ID/Hint                    : DivX 4\nDuration                         : 1h 37mn\nBit rate                         : 1 745 Kbps\nWidth                            : 720 pixels\nHeight                           : 304 pixels\nDisplay aspect ratio             : 2.35:1\nFrame rate                       : 25.000 fps\nResolution                       : 24 bits\nColorimetry                      : 4:2:0\nScan type                        : Progressive\nBits/(Pixel*Frame)               : 0.319\nStream size                      : 1.19 GiB (82%)\nWriting library                  : XviD 1.2.1 (UTC 2008-12-04)\n\nAudio\nID                               : 1\nFormat                           : AC-3\nFormat/Info                      : Audio Coding 3\nCodec ID                         : 2000\nDuration                         : 1h 37mn\nBit rate mode                    : Constant\nBit rate                         : 384 Kbps\nChannel(s)                       : 6 channels\nChannel positions                : Front: L C R, Surround: L R, LFE\nSampling rate                    : 44.1 KHz\nStream size                      : 267 MiB (18%)\nAlignment                        : Aligned on interleaves\nInterleave, duration             : 70 ms (1.74 video frames)\nInterleave, preload duration     : 208 ms\n  &lt;a href=&quot;\nhttp://www.imdb.com/title/tt1634122/&quot; rel=&quot;nofollow&quot; target=&quot;_NEW&quot;&gt;\nhttp://www.imdb.com/title/tt1634122/&lt;/a&gt;","torrent":{"xt":"urn:btih:63036fe1b8f365c00387740391f3464708893078","amp;dn":"Johnny+English+Reborn+%5B2011%5D","amp;tr":["udp%3A%2F%2Ftracker.openbittorrent.com%3A80","udp%3A%2F%2Fopen.demonii.com%3A1337","udp%3A%2F%2Ftracker.coppersurfer.tk%3A6969","udp%3A%2F%2Fexodus.desync.com%3A6969"],"infoHash":"63036fe1b8f365c00387740391f3464708893078","infoHashBuffer":{"type":"Buffer","data":[99,3,111,225,184,243,101,192,3,135,116,3,145,243,70,71,8,137,48,120]},"announce":[],"urlList":[]}}